<svg xmlns="http://www.w3.org/2000/svg" viewBox="0 0 368 346"><defs><style>.cls-1{fill:#1d405b;}.cls-2,.cls-3,.cls-4{fill:#fff;}.cls-3{font-size:41px;}.cls-3,.cls-4{font-family:FranklinGothic-MediumCond, Franklin Gothic Medium Cond;}.cls-4{font-size:16.67px;}.cls-5{letter-spacing:0em;}.cls-6{letter-spacing:0em;}</style></defs><title>1blue_whitelogo</title><g id="Layer_3" data-name="Layer 3"><rect class="cls-1" width="368" height="346"/></g><g id="Layer_2" data-name="Layer 2"><path class="cls-2" d="M140.24,199.79l9-7.11V85.22h17.42c0-.16,18.19,2.22,18.19,26.88,0,14-8.82,19.45-8.61,19.45v11a34.47,34.47,0,0,0,17.34-30.24C193.59,78,167,76.22,167,76.22H140.24Z"/><path class="cls-2" d="M207.78,150.28c0-6.58,3.78-13.79,12.54-13.79,8.34,0,12.75,8.74,12.75,8.74h10s-9.13-14.41-20.79-14.41c-16.53,0-19,12.66-19,12.66l.37-26.83-6.37,3.51v45.07h-32V116l-6,3.56v75.18l6,5.22V172.22h32v23.35s-2.19,29.49,25,29.49c24.31,0,28.59-21,28.59-27.45C250.82,169.6,207.78,162.2,207.78,150.28Zm15.78,66.53c-11.42,0-19.67-3.69-19.31-21.5V172.22h6.46l-2.2-6h-4.26V158c7.87,12.82,39.27,21.35,39.27,38.66C243.52,211.59,232.52,216.8,223.56,216.8Z"/><polygon class="cls-2" points="159.24 172.04 159.24 172.22 159.15 172.22 159.24 172.04"/><text class="cls-3" transform="translate(97.99 263.55) scale(0.96 1)">PREVERANCE</text><polygon class="cls-2" points="151.6 228.19 143.51 234.22 147.56 234.22 151.6 228.19"/><text class="cls-4" transform="translate(149.43 284.36)">H<tspan class="cls-5" x="9.09" y="0">O</tspan><tspan class="cls-6" x="18.53" y="0">TEL SCHOOL</tspan></text><polygon class="cls-2" points="251.24 277.05 251.24 282.89 273.24 279.97 251.24 277.05"/><polygon class="cls-2" points="142.24 277.05 142.24 282.89 120.24 279.97 142.24 277.05"/></g></svg>