<?xml version="1.0" encoding="utf-8"?>
<!-- Generator: Adobe Illustrator 21.1.0, SVG Export Plug-In . SVG Version: 6.00 Build 0)  -->
<svg version="1.1" id="Layer_2" xmlns="http://www.w3.org/2000/svg" xmlns:xlink="http://www.w3.org/1999/xlink" x="0px" y="0px"
	 viewBox="0 0 71 85" style="enable-background:new 0 0 71 85;" xml:space="preserve">
<style type="text/css">
	.st0{fill:#FFFFFF;}
</style>
<title>1Artboard 5logo_new</title>
<g>
	<path class="st0" d="M13.9,67l3.9-3.2V15.1h8c0,0,8.2,1.1,8.2,12.2c0,6.3-4,8.8-4,8.8v5c0,0,7.9-3.8,7.9-13.6
		c0-15.5-12-16.1-12-16.1h-12V67z"/>
	<path class="st0" d="M44.4,44.6c0-2.9,1.7-6.1,5.7-6.1c3.8,0,5.8,3.9,5.8,3.9h4.7c0,0-4.2-6.6-9.5-6.6c-7.6,0-8.7,5.8-8.7,5.8
		l0.2-12.2l-2.9,1.6v20.5H25.1V29.3l-2.9,1.6v33.9l2.9,2.4V54.4h14.5v10.4c0,0-1,13.1,11.3,13.1c11,0,13-9.3,13-12.2
		C63.9,53.2,44.4,49.9,44.4,44.6z M51.4,74.5c-5.1,0-8.9-1.7-8.9-9.7V54.4h3.1l-1-2.9h-2.1V48c3.7,5.8,17.9,9.6,17.9,17.4
		C60.4,72.1,55.4,74.5,51.4,74.5z"/>
</g>
<polygon class="st0" points="-88.3,118.5 -88.3,119.1 -88.6,119.1 "/>
</svg>
